<svg width="359" height="146" viewBox="0 0 359 146" fill="none" xmlns="http://www.w3.org/2000/svg">
<path d="M2 72V1.2H5.6V72H2ZM12.8 72V1.2H16.4V72H12.8ZM30.8 72V1.2H38V72H30.8ZM41.6094 72V1.2H45.2094V72H41.6094ZM52.4094 72V1.2H56.0094V72H52.4094ZM59.6094 72V1.2H66.8094V72H59.6094ZM81.2188 72V1.2H84.8188V72H81.2188ZM99.2188 72V1.2H102.819V72H99.2188ZM106.419 72V1.2H113.619V72H106.419ZM120.828 72V1.2H128.028V72H120.828ZM142.428 72V1.2H146.028V72H142.428ZM153.228 72V1.2H156.828V72H153.228ZM160.438 72V1.2H164.038V72H160.438ZM171.238 72V1.2H174.838V72H171.238ZM182.038 72V1.2H196.438V72H182.038ZM200.047 72V1.2H203.647V72H200.047ZM214.447 72V1.2H228.847V72H214.447ZM232.447 72V1.2H236.047V72H232.447ZM239.656 72V1.2H243.256V72H239.656ZM254.056 72V1.2H268.456V72H254.056ZM272.056 72V1.2H275.656V72H272.056ZM279.266 72V1.2H293.666V72H279.266ZM297.266 72V1.2H308.066V72H297.266ZM311.666 72V1.2H315.266V72H311.666ZM318.875 72V1.2H322.475V72H318.875ZM326.075 72V1.2H340.475V72H326.075ZM347.675 72V1.2H351.275V72H347.675Z" fill="#181818"/>
<path d="M37.8262 108.934C37.8262 109.31 37.7376 109.642 37.5605 109.93C37.3835 110.217 37.0736 110.372 36.6309 110.395C36.7637 110.815 36.9629 111.214 37.2285 111.59C37.4941 111.966 37.627 112.387 37.627 112.852C37.627 113.161 37.5716 113.471 37.4609 113.781C37.3724 114.069 37.2617 114.357 37.1289 114.645C37.0182 114.932 36.8965 115.22 36.7637 115.508C36.6309 115.796 36.5312 116.083 36.4648 116.371C36.3542 116.814 36.0996 117.445 35.7012 118.264C35.3249 119.061 34.8932 119.891 34.4062 120.754C33.9414 121.617 33.4655 122.425 32.9785 123.178C32.4915 123.908 32.082 124.428 31.75 124.738C31.5065 124.96 31.252 125.115 30.9863 125.203C30.7207 125.292 30.4551 125.358 30.1895 125.402C29.9238 125.447 29.6471 125.491 29.3594 125.535C29.0716 125.557 28.7949 125.624 28.5293 125.734C27.998 125.978 27.4889 126.255 27.002 126.564C26.5371 126.896 26.0059 127.062 25.4082 127.062C25.1647 127.062 24.9434 127.007 24.7441 126.896C24.5449 126.786 24.3457 126.664 24.1465 126.531C23.9694 126.398 23.7812 126.277 23.582 126.166C23.3828 126.055 23.1615 126 22.918 126C22.6302 126.177 22.265 126.321 21.8223 126.432C21.3796 126.542 20.9147 126.631 20.4277 126.697C19.9629 126.764 19.498 126.808 19.0332 126.83C18.5905 126.852 18.2031 126.863 17.8711 126.863C16.7643 126.863 15.8346 126.609 15.082 126.1C14.3294 125.613 13.6322 124.949 12.9902 124.107C12.8353 124.152 12.6693 124.229 12.4922 124.34C12.3151 124.451 12.138 124.572 11.9609 124.705C11.7839 124.838 11.6178 124.96 11.4629 125.07C11.3079 125.159 11.1862 125.203 11.0977 125.203L11.0312 124.771L10.832 124.539C10.6328 124.539 10.4557 124.605 10.3008 124.738C10.168 124.849 10.0352 124.982 9.90234 125.137C9.79167 125.292 9.65885 125.436 9.50391 125.568C9.37109 125.679 9.19401 125.734 8.97266 125.734C8.72917 125.734 8.49674 125.701 8.27539 125.635C8.05404 125.546 7.94336 125.347 7.94336 125.037C7.94336 124.794 7.98763 124.583 8.07617 124.406C8.18685 124.207 8.24219 123.986 8.24219 123.742C8.24219 123.454 8.20898 123.178 8.14258 122.912C8.07617 122.646 8.04297 122.381 8.04297 122.115C8.04297 121.827 8.0651 121.551 8.10938 121.285C8.17578 121.02 8.20898 120.743 8.20898 120.455C8.20898 120.123 8.15365 119.791 8.04297 119.459C7.95443 119.127 7.85482 118.806 7.74414 118.496C7.63346 118.164 7.52279 117.843 7.41211 117.533C7.32357 117.201 7.2793 116.858 7.2793 116.504C7.2793 116.039 7.37891 115.596 7.57812 115.176C7.77734 114.755 7.87695 114.312 7.87695 113.848C7.87695 113.693 7.85482 113.571 7.81055 113.482C7.76628 113.372 7.72201 113.283 7.67773 113.217C7.63346 113.128 7.58919 113.029 7.54492 112.918C7.50065 112.785 7.47852 112.597 7.47852 112.354C7.47852 112.11 7.47852 111.855 7.47852 111.59C7.50065 111.302 7.51172 111.103 7.51172 110.992C7.51172 110.638 7.47852 110.295 7.41211 109.963C7.3457 109.631 7.3125 109.288 7.3125 108.934C7.3125 108.358 7.38997 107.783 7.54492 107.207C7.69987 106.632 7.77734 106.056 7.77734 105.48C7.77734 104.706 7.71094 103.931 7.57812 103.156C7.46745 102.382 7.41211 101.596 7.41211 100.799C7.41211 100.511 7.44531 100.223 7.51172 99.9355C7.60026 99.6478 7.6888 99.36 7.77734 99.0723C7.88802 98.7845 7.97656 98.5078 8.04297 98.2422C8.13151 97.9544 8.17578 97.6556 8.17578 97.3457C8.17578 96.748 8.13151 96.1615 8.04297 95.5859C7.95443 95.0104 7.85482 94.4349 7.74414 93.8594C7.6556 93.2617 7.56706 92.6751 7.47852 92.0996C7.41211 91.502 7.37891 90.9043 7.37891 90.3066C7.37891 89.9525 7.37891 89.6094 7.37891 89.2773C7.40104 88.9232 7.41211 88.569 7.41211 88.2148C7.41211 87.1523 7.23503 86.3665 6.88086 85.8574C6.52669 85.3262 6.07292 84.9499 5.51953 84.7285C4.98828 84.485 4.41276 84.3411 3.79297 84.2969C3.17318 84.2526 2.58659 84.1862 2.0332 84.0977C1.50195 83.987 1.05924 83.7988 0.705078 83.5332C0.350911 83.2454 0.173828 82.7585 0.173828 82.0723C0.173828 81.4746 0.328776 80.9987 0.638672 80.6445C0.948568 80.2904 1.33594 80.0247 1.80078 79.8477C2.24349 79.6484 2.73047 79.5267 3.26172 79.4824C3.79297 79.416 4.27995 79.3828 4.72266 79.3828C5.8737 79.3828 7.01367 79.4935 8.14258 79.7148C9.27148 79.9141 10.4115 80.0358 11.5625 80.0801C11.8281 80.1465 11.9941 80.2682 12.0605 80.4453C12.127 80.6224 12.138 80.8438 12.0938 81.1094C12.0716 81.375 12.0273 81.6738 11.9609 82.0059C11.8945 82.3379 11.8613 82.6921 11.8613 83.0684C11.8613 83.7988 11.8392 84.5293 11.7949 85.2598C11.7728 85.9902 11.7617 86.6543 11.7617 87.252C11.7617 87.4512 11.7617 87.8053 11.7617 88.3145C11.7839 88.8236 11.806 89.3991 11.8281 90.041C11.8724 90.6608 11.9277 91.3249 11.9941 92.0332C12.0827 92.7194 12.1823 93.3503 12.293 93.9258C12.4258 94.4792 12.5807 94.944 12.7578 95.3203C12.9349 95.6966 13.1562 95.8848 13.4219 95.8848C13.6432 95.8848 13.8424 95.8294 14.0195 95.7188C14.2188 95.6081 14.4069 95.4753 14.584 95.3203C14.7611 95.1654 14.9271 95.0104 15.082 94.8555C15.2591 94.6784 15.4473 94.5456 15.6465 94.457C16.1113 94.2578 16.6204 94.1139 17.1738 94.0254C17.7493 93.9147 18.3027 93.8594 18.834 93.8594C19.0332 93.8594 19.2324 93.804 19.4316 93.6934C19.6309 93.5827 19.8301 93.472 20.0293 93.3613C20.2285 93.2285 20.4388 93.1068 20.6602 92.9961C20.8815 92.8854 21.125 92.8301 21.3906 92.8301C21.7005 92.8301 21.9993 92.8854 22.2871 92.9961C22.597 93.0846 22.8848 93.1953 23.1504 93.3281C23.4382 93.4609 23.7259 93.5938 24.0137 93.7266C24.3236 93.8372 24.6335 93.9036 24.9434 93.9258C25.3861 93.9701 25.8288 94.0254 26.2715 94.0918C26.7363 94.1361 27.179 94.2467 27.5996 94.4238C27.8431 94.5345 28.0202 94.6673 28.1309 94.8223C28.2415 94.9772 28.3965 95.11 28.5957 95.2207C28.8392 95.3757 29.0716 95.4642 29.293 95.4863C29.5143 95.5085 29.7357 95.5306 29.957 95.5527C30.1784 95.5749 30.4108 95.6302 30.6543 95.7188C30.8978 95.7852 31.1745 95.9401 31.4844 96.1836C31.7943 96.4492 32.1152 96.7259 32.4473 97.0137C32.8014 97.2793 33.1224 97.5671 33.4102 97.877C33.7201 98.1868 33.9857 98.5189 34.207 98.873C34.4505 99.2272 34.6165 99.6146 34.7051 100.035C34.86 100.876 35.0924 101.806 35.4023 102.824C35.7122 103.842 36.1107 104.706 36.5977 105.414C36.9518 105.923 37.2396 106.477 37.4609 107.074C37.7044 107.672 37.8262 108.292 37.8262 108.934ZM34.4062 110.295C34.3841 110.007 34.2624 109.786 34.041 109.631C33.8418 109.476 33.6204 109.354 33.377 109.266C33.1556 109.155 32.9674 109.044 32.8125 108.934C32.6797 108.823 32.6686 108.657 32.7793 108.436C32.8236 108.258 32.89 108.148 32.9785 108.104C33.0892 108.037 33.1999 108.004 33.3105 108.004C33.2663 107.605 33.0781 107.141 32.7461 106.609C32.4141 106.078 32.1706 105.591 32.0156 105.148C31.8828 104.816 31.7943 104.507 31.75 104.219C31.7057 103.931 31.6393 103.665 31.5508 103.422C31.4622 103.178 31.3294 102.957 31.1523 102.758C30.9974 102.536 30.7428 102.315 30.3887 102.094C30.123 101.939 29.9017 101.817 29.7246 101.729C29.5697 101.64 29.4258 101.551 29.293 101.463C29.1823 101.352 29.0716 101.219 28.9609 101.064C28.8724 100.91 28.7617 100.677 28.6289 100.367C28.4961 100.013 28.3301 99.7695 28.1309 99.6367C27.9538 99.4818 27.7435 99.3711 27.5 99.3047C27.2786 99.2383 27.0241 99.1829 26.7363 99.1387C26.4707 99.0944 26.194 99.0169 25.9062 98.9062C25.1758 98.6406 24.4785 98.4193 23.8145 98.2422C23.1504 98.043 22.4199 97.9434 21.623 97.9434C20.1178 97.9434 18.8451 98.1758 17.8047 98.6406C16.7865 99.0833 15.9453 99.7253 15.2812 100.566C14.6172 101.385 14.1081 102.37 13.7539 103.521C13.4219 104.65 13.2005 105.89 13.0898 107.24C13.0456 107.771 12.957 108.303 12.8242 108.834C12.7135 109.365 12.5918 109.896 12.459 110.428C12.3262 110.937 12.2044 111.457 12.0938 111.988C11.9831 112.52 11.9277 113.051 11.9277 113.582C11.9277 113.826 11.9388 114.003 11.9609 114.113C11.9831 114.202 12.0827 114.335 12.2598 114.512C12.6361 114.954 12.8464 115.419 12.8906 115.906C12.957 116.393 13.0013 116.869 13.0234 117.334C13.0677 117.777 13.1673 118.186 13.3223 118.562C13.4772 118.917 13.8314 119.182 14.3848 119.359C14.7168 119.47 14.9603 119.592 15.1152 119.725C15.2923 119.835 15.4362 119.968 15.5469 120.123C15.6576 120.278 15.7572 120.455 15.8457 120.654C15.9564 120.831 16.1003 121.031 16.2773 121.252C16.7422 121.141 17.2181 121.064 17.7051 121.02C18.1921 120.975 18.668 120.898 19.1328 120.787C19.1328 121.075 19.2656 121.307 19.5312 121.484C19.819 121.661 20.151 121.794 20.5273 121.883C20.9036 121.971 21.2799 122.038 21.6562 122.082C22.0547 122.104 22.3535 122.115 22.5527 122.115C22.929 122.115 23.3275 122.104 23.748 122.082C24.1686 122.038 24.5671 121.96 24.9434 121.85C25.3418 121.739 25.707 121.584 26.0391 121.385C26.3932 121.163 26.6699 120.865 26.8691 120.488C27.2012 119.913 27.5885 119.503 28.0312 119.26C28.4961 118.994 28.9499 118.762 29.3926 118.562C29.8574 118.363 30.278 118.12 30.6543 117.832C31.0527 117.522 31.3516 117.046 31.5508 116.404C31.7943 115.63 32.0488 114.844 32.3145 114.047C32.5801 113.228 32.7129 112.398 32.7129 111.557C32.7129 111.269 32.6797 110.992 32.6133 110.727C32.569 110.439 32.4915 110.162 32.3809 109.896C32.6465 110.029 32.9121 110.195 33.1777 110.395C33.4655 110.594 33.7643 110.693 34.0742 110.693C34.1849 110.693 34.2624 110.66 34.3066 110.594C34.373 110.505 34.4062 110.406 34.4062 110.295ZM78.5664 120.189C78.5664 120.566 78.5 120.92 78.3672 121.252C78.2344 121.584 78.1126 121.927 78.002 122.281C77.9134 122.591 77.847 122.846 77.8027 123.045C77.7806 123.244 77.7363 123.421 77.6699 123.576C77.6035 123.709 77.4928 123.842 77.3379 123.975C77.2051 124.085 76.9837 124.218 76.6738 124.373C76.0098 124.727 75.3014 125.092 74.5488 125.469C73.8184 125.823 73.0768 126 72.3242 126C71.6823 126 71.0736 125.856 70.498 125.568C69.9447 125.258 69.4245 124.926 68.9375 124.572C68.4727 124.196 68.041 123.853 67.6426 123.543C67.2663 123.233 66.9453 123.078 66.6797 123.078C66.3919 123.078 66.1374 123.156 65.916 123.311C65.7168 123.465 65.5065 123.632 65.2852 123.809C65.0859 123.986 64.8535 124.152 64.5879 124.307C64.3444 124.462 64.0345 124.539 63.6582 124.539C63.3483 124.539 63.0273 124.594 62.6953 124.705C62.3633 124.816 62.0312 124.949 61.6992 125.104C61.3672 125.236 61.0241 125.38 60.6699 125.535C60.3379 125.668 60.028 125.779 59.7402 125.867C58.7441 126.133 57.737 126.288 56.7188 126.332C55.7227 126.376 54.7155 126.398 53.6973 126.398C53.4316 126.398 53.0221 126.387 52.4688 126.365C51.9154 126.365 51.3509 126.31 50.7754 126.199C50.222 126.111 49.724 125.956 49.2812 125.734C48.8607 125.513 48.6504 125.203 48.6504 124.805C48.6504 124.716 48.6615 124.639 48.6836 124.572C48.5286 124.749 48.3516 124.893 48.1523 125.004C47.9531 125.115 47.7318 125.17 47.4883 125.17C47.1341 125.17 46.7025 124.926 46.1934 124.439C45.6842 123.952 45.1973 123.388 44.7324 122.746C44.2676 122.104 43.8691 121.473 43.5371 120.854C43.2051 120.212 43.0391 119.736 43.0391 119.426C43.0391 119.182 43.1055 118.961 43.2383 118.762C43.3932 118.562 43.4707 118.341 43.4707 118.098C43.4707 117.788 43.4264 117.5 43.3379 117.234C43.2715 116.947 43.2383 116.648 43.2383 116.338C43.2383 115.939 43.3158 115.519 43.4707 115.076C43.6257 114.611 43.8138 114.158 44.0352 113.715C44.2565 113.25 44.4889 112.807 44.7324 112.387C44.9759 111.944 45.1973 111.535 45.3965 111.158C45.6178 110.715 45.9277 110.361 46.3262 110.096C46.7246 109.83 47.1452 109.598 47.5879 109.398C48.0306 109.199 48.4733 109 48.916 108.801C49.3587 108.602 49.7461 108.336 50.0781 108.004C50.4102 108.38 50.8418 108.568 51.373 108.568C51.9264 108.568 52.4688 108.491 53 108.336C53.5312 108.159 54.0736 108.07 54.627 108.07C55.0697 108.07 55.4902 108.115 55.8887 108.203C56.3092 108.292 56.7409 108.336 57.1836 108.336C57.6706 108.336 58.0247 108.281 58.2461 108.17C58.4896 108.037 58.7884 107.816 59.1426 107.506C59.4967 107.196 59.9395 106.964 60.4707 106.809C61.0241 106.632 61.5885 106.499 62.1641 106.41C62.7617 106.299 63.3483 106.189 63.9238 106.078C64.5215 105.967 65.0527 105.812 65.5176 105.613C65.9824 105.392 66.3587 105.104 66.6465 104.75C66.9342 104.374 67.0781 103.865 67.0781 103.223C67.0781 102.514 66.8678 101.773 66.4473 100.998C66.0488 100.201 65.5286 99.4818 64.8867 98.8398C64.2448 98.1758 63.5365 97.6335 62.7617 97.2129C61.987 96.7923 61.2454 96.582 60.5371 96.582C60.4486 96.582 60.36 96.5931 60.2715 96.6152C60.1829 96.6374 60.1055 96.6484 60.0391 96.6484C59.5078 96.737 58.9102 96.8034 58.2461 96.8477C57.582 96.8698 56.9622 96.9694 56.3867 97.1465C55.8112 97.3014 55.3242 97.5781 54.9258 97.9766C54.5273 98.3529 54.3281 98.9173 54.3281 99.6699C54.3281 100.113 54.3613 100.555 54.4277 100.998C54.5163 101.419 54.5605 101.85 54.5605 102.293C54.5605 102.957 54.3945 103.51 54.0625 103.953C53.7526 104.396 53.3431 104.75 52.834 105.016C52.347 105.281 51.8047 105.469 51.207 105.58C50.6094 105.669 50.0339 105.713 49.4805 105.713C48.8164 105.713 48.2409 105.624 47.7539 105.447C47.2669 105.27 46.8685 104.861 46.5586 104.219C46.3151 103.754 46.0495 103.256 45.7617 102.725C45.4961 102.171 45.3633 101.618 45.3633 101.064C45.3633 100.467 45.4629 99.9134 45.6621 99.4043C45.8835 98.873 46.127 98.3639 46.3926 97.877C46.6582 97.3678 46.9128 96.8698 47.1562 96.3828C47.4219 95.8737 47.61 95.3314 47.7207 94.7559C47.8757 94.6673 48.0859 94.5788 48.3516 94.4902C48.6393 94.4017 48.9382 94.3132 49.248 94.2246C49.5801 94.1361 49.89 94.0586 50.1777 93.9922C50.4876 93.9036 50.7422 93.8262 50.9414 93.7598C51.4727 93.6048 51.9818 93.4277 52.4688 93.2285C52.9779 93.0072 53.487 92.8079 53.9961 92.6309C54.5273 92.4538 55.0475 92.2988 55.5566 92.166C56.0879 92.0332 56.6302 91.9557 57.1836 91.9336L58.2129 91.9004C59.1647 91.9004 60.1387 91.9889 61.1348 92.166C62.1309 92.321 63.1048 92.5755 64.0566 92.9297C65.0085 93.2839 65.9049 93.7266 66.7461 94.2578C67.6094 94.7669 68.373 95.3757 69.0371 96.084C69.5241 96.6152 69.9225 97.2461 70.2324 97.9766C70.5645 98.6849 70.819 99.4375 70.9961 100.234C71.1953 101.031 71.3281 101.839 71.3945 102.658C71.4831 103.455 71.5273 104.197 71.5273 104.883C71.5273 105.812 71.4941 106.731 71.4277 107.639C71.3835 108.524 71.3613 109.432 71.3613 110.361C71.3613 111.247 71.4056 112.132 71.4941 113.018C71.6048 113.881 71.7266 114.755 71.8594 115.641C71.9922 116.504 72.1029 117.378 72.1914 118.264C72.3021 119.127 72.3574 119.99 72.3574 120.854C72.4017 121.385 72.4681 121.717 72.5566 121.85C72.6673 121.96 72.778 122.016 72.8887 122.016C73.3757 122.016 73.763 121.872 74.0508 121.584C74.3607 121.274 74.6374 120.942 74.8809 120.588C75.1243 120.212 75.39 119.868 75.6777 119.559C75.9655 119.249 76.3307 119.094 76.7734 119.094C76.9727 119.094 77.1719 119.105 77.3711 119.127C77.5924 119.149 77.7917 119.204 77.9688 119.293C78.1458 119.359 78.2897 119.47 78.4004 119.625C78.5111 119.758 78.5664 119.946 78.5664 120.189ZM67.6426 111.922C67.6426 111.789 67.6315 111.557 67.6094 111.225C67.6094 110.893 67.5872 110.561 67.543 110.229C67.4987 109.874 67.4212 109.564 67.3105 109.299C67.222 109.033 67.0781 108.9 66.8789 108.9C66.8346 108.9 66.7793 108.923 66.7129 108.967C66.6465 108.989 66.5911 109 66.5469 109C65.7057 109.465 64.9863 109.852 64.3887 110.162C63.791 110.45 63.1934 110.693 62.5957 110.893C62.0202 111.07 61.4004 111.191 60.7363 111.258C60.0723 111.324 59.2422 111.357 58.2461 111.357C58.1133 111.357 57.748 111.413 57.1504 111.523C56.5527 111.634 55.8997 111.767 55.1914 111.922C54.4831 112.055 53.819 112.199 53.1992 112.354C52.5794 112.486 52.1921 112.575 52.0371 112.619C51.7493 112.73 51.5391 112.84 51.4062 112.951C51.2956 113.062 51.207 113.184 51.1406 113.316C51.0742 113.449 51.0078 113.593 50.9414 113.748C50.875 113.881 50.7533 114.025 50.5762 114.18C50.3548 114.357 50.1113 114.501 49.8457 114.611C49.6022 114.722 49.3698 114.888 49.1484 115.109C48.8164 115.441 48.5065 115.884 48.2188 116.438C47.931 116.969 47.7871 117.478 47.7871 117.965C47.7871 118.562 47.9421 119.094 48.252 119.559C48.5618 120.023 48.9714 120.422 49.4805 120.754C49.9896 121.086 50.5651 121.374 51.207 121.617C51.849 121.861 52.4909 122.049 53.1328 122.182C53.7969 122.314 54.4277 122.414 55.0254 122.48C55.6452 122.547 56.1764 122.58 56.6191 122.58C57.1504 122.58 57.7812 122.547 58.5117 122.48C59.2422 122.392 59.9727 122.27 60.7031 122.115C61.4336 121.938 62.1198 121.706 62.7617 121.418C63.4036 121.13 63.9128 120.765 64.2891 120.322C64.444 120.145 64.5547 119.99 64.6211 119.857C64.6875 119.702 64.7539 119.559 64.8203 119.426C64.9089 119.271 64.9974 119.116 65.0859 118.961C65.1966 118.806 65.3626 118.64 65.584 118.463C66.0931 118.042 66.4805 117.577 66.7461 117.068C67.0339 116.559 67.2441 116.028 67.377 115.475C67.5098 114.921 67.5872 114.346 67.6094 113.748C67.6315 113.15 67.6426 112.542 67.6426 111.922ZM113.264 119.16C113.264 119.382 113.175 119.536 112.998 119.625C112.843 119.714 112.688 119.802 112.533 119.891C112.29 120.023 112.09 120.178 111.936 120.355C111.781 120.533 111.637 120.732 111.504 120.953C111.371 121.152 111.249 121.374 111.139 121.617C111.028 121.839 110.906 122.049 110.773 122.248C110.464 122.713 110.032 123.034 109.479 123.211C108.947 123.388 108.416 123.554 107.885 123.709C107.354 123.864 106.867 124.085 106.424 124.373C106.003 124.639 105.738 125.104 105.627 125.768H105.461C104.952 125.768 104.476 125.856 104.033 126.033C103.613 126.21 103.181 126.398 102.738 126.598C102.318 126.819 101.886 127.018 101.443 127.195C101.001 127.372 100.536 127.461 100.049 127.461C99.7832 127.461 99.5286 127.417 99.2852 127.328C99.0638 127.24 98.8314 127.14 98.5879 127.029C98.3665 126.919 98.1341 126.819 97.8906 126.73C97.6693 126.642 97.4258 126.598 97.1602 126.598C96.806 126.598 96.4629 126.62 96.1309 126.664C95.7988 126.708 95.4668 126.73 95.1348 126.73C94.8913 126.73 94.6035 126.697 94.2715 126.631C93.9395 126.587 93.6296 126.498 93.3418 126.365C93.054 126.232 92.8105 126.066 92.6113 125.867C92.4121 125.646 92.3125 125.38 92.3125 125.07C92.3125 124.96 92.3236 124.871 92.3457 124.805C92.235 124.915 92.1133 124.993 91.9805 125.037C91.8477 125.059 91.7148 125.07 91.582 125.07C90.918 125.07 90.2982 124.926 89.7227 124.639C89.1693 124.329 88.638 123.964 88.1289 123.543C87.6419 123.1 87.1771 122.635 86.7344 122.148C86.3138 121.639 85.8932 121.174 85.4727 120.754C84.9635 120.245 84.5651 119.658 84.2773 118.994C84.0117 118.33 83.6908 117.688 83.3145 117.068C82.5176 115.785 82.0306 114.49 81.8535 113.184C81.6764 111.855 81.5879 110.472 81.5879 109.033C81.5879 108.768 81.599 108.469 81.6211 108.137C81.6654 107.783 81.7428 107.528 81.8535 107.373C81.9421 107.262 82.0527 107.185 82.1855 107.141C82.3184 107.074 82.4401 107.019 82.5508 106.975C82.6836 106.908 82.7943 106.842 82.8828 106.775C82.9714 106.709 83.0156 106.609 83.0156 106.477C83.0156 106.167 82.9382 105.89 82.7832 105.646C82.6283 105.381 82.5508 105.093 82.5508 104.783C82.5508 104.562 82.5951 104.374 82.6836 104.219C82.7943 104.064 82.9049 103.898 83.0156 103.721C83.1927 103.433 83.3477 102.957 83.4805 102.293C83.6354 101.607 83.7904 100.932 83.9453 100.268C84.1224 99.5814 84.3327 98.9837 84.5762 98.4746C84.8418 97.9434 85.1849 97.6777 85.6055 97.6777C85.9154 97.6777 86.2031 97.722 86.4688 97.8105C86.7344 97.8991 87.0221 97.9434 87.332 97.9434C87.5977 97.9434 87.8522 97.9102 88.0957 97.8438L88.1289 97.5781C88.1289 97.3125 88.0404 97.1465 87.8633 97.0801C87.7083 97.0137 87.5312 96.9694 87.332 96.9473C87.1549 96.9251 86.9779 96.903 86.8008 96.8809C86.6458 96.8366 86.5684 96.7148 86.5684 96.5156C86.5684 96.3828 86.6237 96.2721 86.7344 96.1836C86.8672 96.0729 87.0111 95.9844 87.166 95.918C87.3431 95.8294 87.5202 95.752 87.6973 95.6855C87.8743 95.6191 88.0072 95.5527 88.0957 95.4863C88.3171 95.3092 88.472 95.1432 88.5605 94.9883C88.6491 94.8112 88.7266 94.6452 88.793 94.4902C88.8815 94.3353 89.0033 94.2025 89.1582 94.0918C89.3132 93.9811 89.5677 93.8815 89.9219 93.793C90.2318 93.7266 90.5417 93.6934 90.8516 93.6934C91.1615 93.6712 91.4714 93.6602 91.7812 93.6602C92.0911 93.638 92.401 93.6159 92.7109 93.5938C93.0208 93.5716 93.3307 93.5163 93.6406 93.4277L93.3086 93.0957C93.4193 92.8965 93.5742 92.7415 93.7734 92.6309C93.9727 92.498 94.194 92.3984 94.4375 92.332C94.7031 92.2656 94.9577 92.2324 95.2012 92.2324C95.4668 92.2103 95.6992 92.1992 95.8984 92.1992C96.6732 92.1992 97.4258 92.2988 98.1562 92.498C98.8867 92.6973 99.6172 92.7969 100.348 92.7969C100.658 92.7969 100.956 92.7637 101.244 92.6973C101.554 92.6087 101.864 92.5645 102.174 92.5645C102.639 92.5645 103.07 92.6862 103.469 92.9297C103.889 93.151 104.288 93.3613 104.664 93.5605L104.797 93.5938C104.996 93.5938 105.162 93.5163 105.295 93.3613C105.428 93.2064 105.561 93.1289 105.693 93.1289C105.804 93.1289 105.893 93.1842 105.959 93.2949C106.025 93.3835 106.092 93.472 106.158 93.5605C106.335 93.7598 106.568 93.8926 106.855 93.959C107.165 94.0033 107.376 94.1139 107.486 94.291C107.641 94.5566 107.818 94.7448 108.018 94.8555C108.217 94.944 108.416 95.0104 108.615 95.0547C108.814 95.099 109.025 95.1432 109.246 95.1875C109.467 95.2318 109.678 95.3314 109.877 95.4863V96.416C110.32 96.9915 110.729 97.4342 111.105 97.7441C111.504 98.0319 111.847 98.3418 112.135 98.6738C112.445 98.9837 112.677 99.3822 112.832 99.8691C113.009 100.334 113.098 101.02 113.098 101.928C113.098 102.902 113.009 103.754 112.832 104.484C112.677 105.215 112.389 105.835 111.969 106.344C111.57 106.831 111.028 107.207 110.342 107.473C109.656 107.716 108.803 107.827 107.785 107.805L105.627 107.771C105.45 107.484 105.195 107.085 104.863 106.576C104.531 106.045 104.199 105.503 103.867 104.949C103.535 104.374 103.236 103.842 102.971 103.355C102.727 102.846 102.605 102.459 102.605 102.193C102.605 101.861 102.628 101.529 102.672 101.197C102.738 100.865 102.771 100.533 102.771 100.201C102.617 99.7806 102.406 99.4375 102.141 99.1719C101.897 98.9062 101.609 98.707 101.277 98.5742C100.945 98.4193 100.58 98.3197 100.182 98.2754C99.8053 98.2311 99.418 98.209 99.0195 98.209C98.444 98.209 97.8685 98.2533 97.293 98.3418C96.7396 98.4303 96.1973 98.5742 95.666 98.7734C95.666 98.5742 95.6107 98.3971 95.5 98.2422C95.4115 98.0651 95.2454 97.9766 95.002 97.9766C94.6921 97.9766 94.3158 98.0983 93.873 98.3418C93.4303 98.5632 92.9766 98.8398 92.5117 99.1719C92.069 99.5039 91.6595 99.8581 91.2832 100.234C90.9069 100.589 90.6302 100.898 90.4531 101.164C90.2982 101.385 90.0879 101.729 89.8223 102.193C89.5566 102.658 89.2689 103.123 88.959 103.588C88.6712 104.053 88.3613 104.473 88.0293 104.85C87.7194 105.204 87.4316 105.392 87.166 105.414C87.2324 105.724 87.321 106.145 87.4316 106.676C87.5423 107.185 87.6419 107.727 87.7305 108.303C87.819 108.878 87.8965 109.432 87.9629 109.963C88.0293 110.472 88.0625 110.87 88.0625 111.158C88.0625 111.667 88.151 112.143 88.3281 112.586C88.5052 113.029 88.5938 113.505 88.5938 114.014C88.5938 114.39 88.5384 114.766 88.4277 115.143C88.3392 115.519 88.2949 115.895 88.2949 116.271C88.2949 116.604 88.3392 116.825 88.4277 116.936C88.5384 117.046 88.7487 117.146 89.0586 117.234C89.4128 117.345 89.6562 117.533 89.7891 117.799C89.944 118.064 90.0658 118.341 90.1543 118.629C90.265 118.895 90.3867 119.127 90.5195 119.326C90.6745 119.525 90.9401 119.625 91.3164 119.625H91.4824L91.8809 119.592C92.1465 119.946 92.3014 120.344 92.3457 120.787C92.4121 121.23 92.5781 121.628 92.8438 121.982C92.9987 121.96 93.0983 121.894 93.1426 121.783C93.1868 121.673 93.2311 121.562 93.2754 121.451C93.3197 121.34 93.3861 121.241 93.4746 121.152C93.5853 121.064 93.7734 121.02 94.0391 121.02C94.2826 121.02 94.4818 121.086 94.6367 121.219C94.7917 121.352 94.9355 121.507 95.0684 121.684C95.2012 121.839 95.334 121.982 95.4668 122.115C95.6217 122.248 95.8099 122.314 96.0312 122.314C96.4076 122.314 96.8171 122.248 97.2598 122.115C97.7246 121.96 98.1895 121.794 98.6543 121.617C99.1413 121.418 99.6172 121.219 100.082 121.02C100.547 120.82 100.967 120.665 101.344 120.555C102.251 120.289 103.104 119.902 103.9 119.393C104.697 118.883 105.339 118.208 105.826 117.367C106.07 116.924 106.357 116.515 106.689 116.139C107.044 115.762 107.32 115.342 107.52 114.877C107.741 114.877 107.962 114.866 108.184 114.844C108.405 114.822 108.637 114.811 108.881 114.811C108.947 114.811 109.047 114.811 109.18 114.811C109.335 114.811 109.49 114.822 109.645 114.844C109.799 114.866 109.932 114.899 110.043 114.943C110.176 114.988 110.242 115.043 110.242 115.109C110.242 115.309 110.165 115.475 110.01 115.607C109.877 115.718 109.722 115.829 109.545 115.939C109.39 116.028 109.246 116.139 109.113 116.271C108.98 116.382 108.914 116.548 108.914 116.77L109.279 116.736C109.545 116.736 109.899 116.803 110.342 116.936C110.785 117.068 111.216 117.257 111.637 117.5C112.079 117.721 112.456 117.976 112.766 118.264C113.098 118.551 113.264 118.85 113.264 119.16ZM110.873 121.02C110.873 120.887 110.818 120.776 110.707 120.688C110.618 120.577 110.508 120.521 110.375 120.521C110.22 120.521 110.087 120.621 109.977 120.82C109.866 121.02 109.811 121.174 109.811 121.285C109.811 121.418 109.888 121.484 110.043 121.484C110.198 121.462 110.298 121.451 110.342 121.451C110.452 121.451 110.563 121.429 110.674 121.385C110.807 121.318 110.873 121.197 110.873 121.02ZM156.893 124.738C156.893 125.048 156.837 125.281 156.727 125.436C156.616 125.568 156.483 125.69 156.328 125.801C156.195 125.911 156.074 126.022 155.963 126.133C155.852 126.243 155.797 126.41 155.797 126.631C155.797 126.764 155.808 126.863 155.83 126.93C155.055 127.129 154.192 127.262 153.24 127.328C152.311 127.395 151.447 127.428 150.65 127.428C150.54 127.428 150.396 127.395 150.219 127.328C150.064 127.284 149.909 127.217 149.754 127.129C149.599 127.062 149.466 126.963 149.355 126.83C149.267 126.719 149.223 126.598 149.223 126.465C148.957 126.553 148.658 126.62 148.326 126.664C148.016 126.73 147.706 126.808 147.396 126.896C147.109 126.985 146.832 127.107 146.566 127.262C146.301 127.417 146.079 127.627 145.902 127.893C145.615 127.804 145.227 127.727 144.74 127.66C144.275 127.594 143.777 127.516 143.246 127.428C142.715 127.339 142.184 127.229 141.652 127.096C141.121 126.985 140.634 126.83 140.191 126.631C139.771 126.454 139.417 126.232 139.129 125.967C138.863 125.701 138.73 125.369 138.73 124.971C138.73 124.86 138.742 124.672 138.764 124.406C138.786 124.118 138.83 123.831 138.896 123.543C138.963 123.255 139.04 123.001 139.129 122.779C139.24 122.558 139.361 122.447 139.494 122.447C139.715 122.447 139.926 122.492 140.125 122.58C140.346 122.669 140.579 122.713 140.822 122.713L141.154 122.68L141.188 122.414C141.188 122.237 141.132 122.104 141.021 122.016C140.933 121.905 140.811 121.839 140.656 121.816C140.501 121.772 140.346 121.75 140.191 121.75C140.036 121.75 139.893 121.75 139.76 121.75C140.048 121.462 140.236 121.119 140.324 120.721C140.413 120.322 140.457 119.935 140.457 119.559C140.457 119.16 140.402 118.706 140.291 118.197C140.202 117.666 140.048 117.157 139.826 116.67C139.605 116.183 139.328 115.751 138.996 115.375C138.686 114.999 138.31 114.755 137.867 114.645C137.734 114.357 137.579 114.058 137.402 113.748C137.225 113.416 137.015 113.117 136.771 112.852C136.55 112.586 136.285 112.365 135.975 112.188C135.687 112.01 135.366 111.922 135.012 111.922C134.613 111.922 134.104 112.132 133.484 112.553C132.865 112.973 132.256 113.46 131.658 114.014C131.083 114.545 130.574 115.065 130.131 115.574C129.71 116.083 129.5 116.426 129.5 116.604C129.5 116.847 129.533 117.079 129.6 117.301C129.666 117.522 129.699 117.755 129.699 117.998C129.699 118.374 129.622 118.717 129.467 119.027C129.312 119.337 129.113 119.614 128.869 119.857C128.936 120.256 129.102 120.555 129.367 120.754C129.633 120.953 129.943 121.108 130.297 121.219C130.673 121.307 131.049 121.374 131.426 121.418C131.802 121.44 132.145 121.484 132.455 121.551C132.588 121.684 132.776 121.85 133.02 122.049C133.285 122.248 133.529 122.469 133.75 122.713C133.993 122.934 134.204 123.167 134.381 123.41C134.558 123.654 134.646 123.875 134.646 124.074C134.646 124.296 134.558 124.428 134.381 124.473C134.226 124.517 134.049 124.55 133.85 124.572C133.65 124.594 133.462 124.639 133.285 124.705C133.13 124.771 133.053 124.915 133.053 125.137C133.053 125.292 133.075 125.424 133.119 125.535C132.057 125.579 131.016 125.69 129.998 125.867C129.002 126.022 127.995 126.221 126.977 126.465C126.556 126.576 126.135 126.642 125.715 126.664C125.294 126.686 124.863 126.697 124.42 126.697C123.999 126.697 123.568 126.708 123.125 126.73C122.682 126.753 122.251 126.808 121.83 126.896C121.52 126.963 121.21 126.996 120.9 126.996C120.391 126.996 119.915 126.896 119.473 126.697C119.03 126.498 118.643 126.221 118.311 125.867C117.979 125.513 117.713 125.115 117.514 124.672C117.337 124.229 117.248 123.753 117.248 123.244C117.248 122.757 117.381 122.303 117.646 121.883C117.934 121.462 118.366 121.252 118.941 121.252C119.118 121.252 119.262 121.34 119.373 121.518C119.484 121.673 119.628 121.75 119.805 121.75C119.893 121.75 119.971 121.706 120.037 121.617C120.104 121.507 120.17 121.385 120.236 121.252C120.325 121.119 120.436 120.997 120.568 120.887C120.701 120.776 120.867 120.699 121.066 120.654C121.686 120.566 122.195 120.355 122.594 120.023C123.014 119.691 123.335 119.293 123.557 118.828C123.778 118.341 123.933 117.821 124.021 117.268C124.11 116.692 124.154 116.128 124.154 115.574C124.154 115.132 124.099 114.711 123.988 114.312C123.9 113.892 123.855 113.471 123.855 113.051C123.855 112.475 123.955 111.889 124.154 111.291C124.376 110.671 124.486 109.985 124.486 109.232C124.486 108.192 124.42 107.174 124.287 106.178C124.176 105.16 124.121 104.13 124.121 103.09C124.121 102.315 124.165 101.529 124.254 100.732C124.342 99.9355 124.387 99.1497 124.387 98.375C124.387 98.0872 124.342 97.8216 124.254 97.5781C124.188 97.3125 124.11 97.069 124.021 96.8477C123.933 96.6042 123.844 96.3828 123.756 96.1836C123.689 95.9622 123.656 95.7409 123.656 95.5195C123.656 95.0768 123.734 94.6341 123.889 94.1914C124.044 93.7487 124.121 93.306 124.121 92.8633C124.121 92.3542 124.033 91.8672 123.855 91.4023C123.701 90.9375 123.623 90.4505 123.623 89.9414C123.623 89.5651 123.656 89.1888 123.723 88.8125C123.811 88.4141 123.855 88.0156 123.855 87.6172C123.855 86.8203 123.678 86.2227 123.324 85.8242C122.992 85.4258 122.572 85.138 122.062 84.9609C121.553 84.7617 120.989 84.64 120.369 84.5957C119.771 84.5514 119.218 84.485 118.709 84.3965C118.2 84.2858 117.768 84.1087 117.414 83.8652C117.082 83.6217 116.916 83.2233 116.916 82.6699C116.916 82.028 117.06 81.5078 117.348 81.1094C117.635 80.6888 118.001 80.3678 118.443 80.1465C118.886 79.9251 119.373 79.7812 119.904 79.7148C120.436 79.6263 120.956 79.582 121.465 79.582C122.904 79.8919 124.033 80.1576 124.852 80.3789C125.671 80.6003 126.279 80.7884 126.678 80.9434C127.098 81.0983 127.353 81.2201 127.441 81.3086C127.552 81.3971 127.63 81.4746 127.674 81.541C127.807 81.9395 127.917 82.5371 128.006 83.334C128.117 84.1309 128.205 84.972 128.271 85.8574C128.338 86.7207 128.382 87.5618 128.404 88.3809C128.449 89.1777 128.471 89.7754 128.471 90.1738C128.471 90.7715 128.382 91.347 128.205 91.9004C128.028 92.4316 127.939 92.985 127.939 93.5605C127.939 94.1803 128.017 94.778 128.172 95.3535C128.349 95.929 128.46 96.5267 128.504 97.1465C128.526 97.5449 128.537 97.9434 128.537 98.3418C128.559 98.7181 128.57 99.1055 128.57 99.5039C128.57 100.079 128.559 100.666 128.537 101.264C128.537 101.861 128.537 102.459 128.537 103.057C128.537 103.898 128.559 104.728 128.604 105.547C128.648 106.366 128.736 107.185 128.869 108.004C128.98 108.048 129.079 108.07 129.168 108.07C129.257 108.07 129.356 108.07 129.467 108.07C129.91 108.07 130.275 107.96 130.562 107.738C130.85 107.495 131.116 107.218 131.359 106.908C131.603 106.598 131.857 106.288 132.123 105.979C132.389 105.646 132.721 105.392 133.119 105.215C133.65 104.993 134.093 104.673 134.447 104.252C134.824 103.809 135.178 103.355 135.51 102.891C135.842 102.426 136.185 101.994 136.539 101.596C136.915 101.175 137.369 100.854 137.9 100.633C138.454 100.411 138.73 100.013 138.73 99.4375C138.73 99.1055 138.686 98.7845 138.598 98.4746C138.509 98.1426 138.398 97.8216 138.266 97.5117C138.155 97.2018 138.055 96.8919 137.967 96.582C137.878 96.25 137.834 95.918 137.834 95.5859L137.867 95.2207L138.133 95.2539H138.232C138.321 95.2539 138.41 95.2539 138.498 95.2539C138.587 95.2318 138.631 95.1764 138.631 95.0879C138.52 94.9108 138.465 94.7116 138.465 94.4902C138.465 94.1803 138.531 93.9811 138.664 93.8926C138.819 93.804 139.029 93.7598 139.295 93.7598C139.782 93.7598 140.247 93.8483 140.689 94.0254C141.154 94.2025 141.63 94.291 142.117 94.291C142.471 94.291 142.803 94.2467 143.113 94.1582C143.445 94.0475 143.777 93.9368 144.109 93.8262C144.441 93.6934 144.762 93.5827 145.072 93.4941C145.404 93.3835 145.747 93.3281 146.102 93.3281C146.699 93.3281 147.286 93.4056 147.861 93.5605C148.437 93.7155 149.023 93.793 149.621 93.793C150.241 93.793 150.85 93.7044 151.447 93.5273C152.045 93.3503 152.665 93.2617 153.307 93.2617C153.417 93.2617 153.572 93.2949 153.771 93.3613C153.971 93.4277 154.159 93.5163 154.336 93.627C154.535 93.7376 154.701 93.8594 154.834 93.9922C154.989 94.125 155.066 94.2578 155.066 94.3906C155.022 94.5456 154.934 94.6562 154.801 94.7227C154.668 94.7669 154.602 94.8333 154.602 94.9219C154.602 95.0326 154.657 95.1654 154.768 95.3203C154.878 95.4531 155 95.6081 155.133 95.7852C155.288 95.9401 155.421 96.1172 155.531 96.3164C155.642 96.4935 155.697 96.6816 155.697 96.8809C155.697 97.1686 155.432 97.4453 154.9 97.7109C154.369 97.9766 153.749 98.2201 153.041 98.4414C152.355 98.6406 151.68 98.8066 151.016 98.9395C150.352 99.0501 149.887 99.1055 149.621 99.1055C149.156 99.1055 148.802 99.028 148.559 98.873C148.337 98.696 148.116 98.6074 147.895 98.6074C147.54 98.6074 147.087 98.7513 146.533 99.0391C145.98 99.3047 145.382 99.6589 144.74 100.102C144.12 100.544 143.49 101.053 142.848 101.629C142.206 102.182 141.619 102.736 141.088 103.289C140.579 103.842 140.147 104.374 139.793 104.883C139.461 105.392 139.295 105.812 139.295 106.145C139.273 106.499 139.217 106.842 139.129 107.174C139.04 107.506 138.996 107.849 138.996 108.203C138.996 108.513 139.096 108.768 139.295 108.967C139.494 109.166 139.727 109.354 139.992 109.531C140.258 109.686 140.523 109.863 140.789 110.062C141.077 110.262 141.287 110.505 141.42 110.793C141.619 111.236 141.918 111.745 142.316 112.32C142.715 112.874 143.146 113.471 143.611 114.113C144.098 114.733 144.585 115.364 145.072 116.006C145.559 116.648 146.002 117.279 146.4 117.898C146.821 118.496 147.153 119.072 147.396 119.625C147.662 120.156 147.795 120.621 147.795 121.02V121.252C148.902 121.008 149.986 120.887 151.049 120.887C151.779 120.887 152.499 120.931 153.207 121.02C153.938 121.086 154.657 121.163 155.365 121.252V121.551V121.717C155.365 122.16 155.443 122.525 155.598 122.812C155.753 123.078 155.93 123.322 156.129 123.543C156.328 123.742 156.505 123.941 156.66 124.141C156.815 124.318 156.893 124.517 156.893 124.738ZM196.836 101.762C196.836 102.204 196.747 102.581 196.57 102.891C196.393 103.201 196.194 103.499 195.973 103.787C195.773 104.053 195.563 104.329 195.342 104.617C195.143 104.905 195.01 105.248 194.943 105.646C194.744 105.558 194.534 105.503 194.312 105.48C194.113 105.458 193.903 105.447 193.682 105.447C193.15 105.447 192.619 105.492 192.088 105.58C191.579 105.646 191.07 105.68 190.561 105.68C189.963 105.68 189.465 105.503 189.066 105.148C188.69 104.772 188.38 104.318 188.137 103.787C187.915 103.256 187.76 102.691 187.672 102.094C187.583 101.474 187.539 100.921 187.539 100.434C187.539 99.8138 187.639 99.1829 187.838 98.541C187.661 98.4746 187.506 98.4414 187.373 98.4414C187.085 98.4414 186.875 98.5299 186.742 98.707C186.632 98.8841 186.465 98.9727 186.244 98.9727C186.045 98.9727 185.868 98.9062 185.713 98.7734C185.558 98.6185 185.37 98.541 185.148 98.541C184.816 98.541 184.396 98.6517 183.887 98.873C183.4 99.0723 182.924 99.3379 182.459 99.6699C181.994 100.002 181.585 100.367 181.23 100.766C180.898 101.142 180.732 101.507 180.732 101.861C180.268 101.906 179.825 102.038 179.404 102.26C179.006 102.459 178.618 102.68 178.242 102.924C177.954 103.101 177.711 103.378 177.512 103.754C177.312 104.13 177.124 104.54 176.947 104.982C176.792 105.403 176.626 105.835 176.449 106.277C176.294 106.72 176.106 107.085 175.885 107.373C175.508 107.86 175.176 108.358 174.889 108.867C174.623 109.354 174.49 109.908 174.49 110.527C174.49 111.302 174.612 112.088 174.855 112.885C175.099 113.682 175.221 114.49 175.221 115.309C175.221 115.84 175.176 116.371 175.088 116.902C175.021 117.434 174.988 117.954 174.988 118.463C174.988 119.083 175.099 119.581 175.32 119.957C175.542 120.333 175.84 120.632 176.217 120.854C176.593 121.053 177.025 121.186 177.512 121.252C177.999 121.318 178.497 121.352 179.006 121.352C179.559 121.352 180.09 121.34 180.6 121.318C181.131 121.274 181.618 121.252 182.061 121.252C182.215 121.429 182.304 121.595 182.326 121.75C182.348 121.905 182.337 122.071 182.293 122.248C182.271 122.403 182.227 122.569 182.16 122.746C182.116 122.901 182.094 123.089 182.094 123.311C182.094 123.399 182.116 123.51 182.16 123.643C182.492 123.643 182.78 123.565 183.023 123.41C183.267 123.255 183.444 123.012 183.555 122.68C183.71 122.724 183.842 122.79 183.953 122.879C184.086 122.967 184.152 123.1 184.152 123.277C184.152 123.41 184.119 123.543 184.053 123.676C183.986 123.786 183.909 123.897 183.82 124.008C183.732 124.118 183.654 124.24 183.588 124.373C183.521 124.484 183.488 124.617 183.488 124.771C183.488 124.86 183.499 124.96 183.521 125.07C183.544 125.159 183.577 125.236 183.621 125.303C183.51 125.48 183.355 125.602 183.156 125.668C182.957 125.734 182.758 125.768 182.559 125.768C182.204 125.768 181.906 125.712 181.662 125.602C181.441 125.491 181.23 125.369 181.031 125.236C180.854 125.104 180.688 124.982 180.533 124.871C180.378 124.76 180.19 124.705 179.969 124.705C179.88 124.705 179.747 124.727 179.57 124.771C179.393 124.816 179.216 124.871 179.039 124.938C178.862 125.004 178.707 125.092 178.574 125.203C178.441 125.292 178.375 125.38 178.375 125.469C178.375 125.646 178.43 125.801 178.541 125.934C178.674 126.066 178.74 126.221 178.74 126.398C178.74 126.553 178.685 126.675 178.574 126.764C178.464 126.852 178.331 126.908 178.176 126.93C178.021 126.974 177.855 126.996 177.678 126.996C177.523 127.018 177.39 127.029 177.279 127.029C176.416 127.029 175.553 126.93 174.689 126.73C173.848 126.553 172.996 126.465 172.133 126.465C171.734 126.465 171.336 126.553 170.938 126.73C170.539 126.908 170.118 126.996 169.676 126.996C169.432 126.996 169.244 126.941 169.111 126.83C169.001 126.742 168.901 126.631 168.812 126.498C168.724 126.365 168.624 126.243 168.514 126.133C168.403 126.044 168.237 126 168.016 126C167.595 126 167.174 126.044 166.754 126.133C166.355 126.221 165.946 126.31 165.525 126.398C165.127 126.509 164.717 126.598 164.297 126.664C163.898 126.753 163.489 126.797 163.068 126.797C162.847 126.797 162.581 126.764 162.271 126.697C161.962 126.653 161.663 126.564 161.375 126.432C161.087 126.299 160.844 126.133 160.645 125.934C160.445 125.734 160.346 125.491 160.346 125.203C160.346 125.026 160.445 124.794 160.645 124.506C160.866 124.218 161.109 123.941 161.375 123.676C161.641 123.388 161.906 123.145 162.172 122.945C162.438 122.746 162.637 122.646 162.77 122.646C163.124 122.646 163.467 122.658 163.799 122.68C164.153 122.702 164.518 122.713 164.895 122.713C165.492 122.713 166.09 122.624 166.688 122.447C167.307 122.248 167.861 121.971 168.348 121.617C168.857 121.263 169.266 120.82 169.576 120.289C169.886 119.758 170.041 119.16 170.041 118.496C170.041 118.208 170.019 117.932 169.975 117.666C169.93 117.378 169.908 117.09 169.908 116.803C169.908 116.227 169.975 115.652 170.107 115.076C170.24 114.501 170.307 113.925 170.307 113.35C170.307 112.575 170.218 111.789 170.041 110.992C169.886 110.173 169.809 109.354 169.809 108.535C169.809 107.805 169.82 107.085 169.842 106.377C169.886 105.646 169.908 104.916 169.908 104.186C169.908 103.854 169.897 103.367 169.875 102.725C169.853 102.083 169.775 101.441 169.643 100.799C169.532 100.157 169.344 99.5924 169.078 99.1055C168.835 98.6185 168.492 98.375 168.049 98.375C167.562 98.375 167.075 98.4303 166.588 98.541C166.101 98.6517 165.603 98.707 165.094 98.707C164.717 98.707 164.275 98.6849 163.766 98.6406C163.257 98.5742 162.77 98.4635 162.305 98.3086C161.84 98.1315 161.441 97.888 161.109 97.5781C160.777 97.2682 160.611 96.8587 160.611 96.3496C160.611 95.7962 160.689 95.3535 160.844 95.0215C160.999 94.6673 161.198 94.4017 161.441 94.2246C161.707 94.0475 162.006 93.9258 162.338 93.8594C162.692 93.793 163.068 93.7598 163.467 93.7598C163.821 93.7598 164.186 93.7708 164.562 93.793C164.939 93.8151 165.304 93.8262 165.658 93.8262C166.367 93.8262 167.064 93.793 167.75 93.7266C168.458 93.638 169.167 93.5938 169.875 93.5938C170.362 93.5938 170.849 93.6159 171.336 93.6602C171.823 93.7044 172.299 93.804 172.764 93.959C173.184 94.0918 173.494 94.3464 173.693 94.7227C173.893 95.0768 174.07 95.4421 174.225 95.8184C174.402 96.1947 174.601 96.5378 174.822 96.8477C175.044 97.1354 175.398 97.2793 175.885 97.2793C176.106 97.2793 176.305 97.224 176.482 97.1133C176.682 96.9805 176.87 96.8366 177.047 96.6816C177.224 96.5267 177.401 96.3828 177.578 96.25C177.755 96.1172 177.965 96.0286 178.209 95.9844C178.696 95.918 179.139 95.763 179.537 95.5195C179.958 95.276 180.367 95.0326 180.766 94.7891C181.164 94.5456 181.562 94.3242 181.961 94.125C182.382 93.9258 182.835 93.8262 183.322 93.8262C183.61 93.8262 183.964 93.793 184.385 93.7266C184.827 93.6602 185.259 93.5716 185.68 93.4609C186.122 93.3281 186.532 93.1732 186.908 92.9961C187.307 92.819 187.617 92.6198 187.838 92.3984C188.436 92.4427 189.133 92.5866 189.93 92.8301C190.749 93.0736 191.523 93.4056 192.254 93.8262C193.007 94.2246 193.66 94.7005 194.213 95.2539C194.766 95.8073 195.087 96.4271 195.176 97.1133C195.242 97.5339 195.364 97.9323 195.541 98.3086C195.718 98.6849 195.895 99.0612 196.072 99.4375C196.271 99.7917 196.449 100.168 196.604 100.566C196.758 100.943 196.836 101.341 196.836 101.762ZM234.688 111.457C234.688 111.767 234.632 112.066 234.521 112.354C234.433 112.619 234.322 112.852 234.189 113.051C234.079 113.25 233.968 113.416 233.857 113.549C233.769 113.682 233.725 113.759 233.725 113.781C233.725 114.003 233.791 114.235 233.924 114.479C234.079 114.722 234.156 114.988 234.156 115.275C234.156 115.408 234.101 115.497 233.99 115.541C233.902 115.585 233.802 115.607 233.691 115.607C233.492 115.607 233.326 115.585 233.193 115.541C233.215 115.962 233.249 116.371 233.293 116.77C233.359 117.168 233.393 117.577 233.393 117.998C233.393 118.64 233.326 119.061 233.193 119.26C233.083 119.437 232.961 119.548 232.828 119.592C232.695 119.636 232.562 119.691 232.43 119.758C232.319 119.802 232.264 120.001 232.264 120.355C232.264 120.555 232.12 120.809 231.832 121.119C231.566 121.429 231.234 121.739 230.836 122.049C230.46 122.359 230.061 122.624 229.641 122.846C229.242 123.067 228.921 123.178 228.678 123.178C228.611 123.178 228.534 123.156 228.445 123.111C228.445 123.288 228.456 123.477 228.479 123.676C228.501 123.875 228.512 124.063 228.512 124.24C228.512 124.528 228.423 124.727 228.246 124.838C228.069 124.926 227.87 125.015 227.648 125.104C227.316 125.258 226.973 125.491 226.619 125.801C226.265 126.089 225.9 126.387 225.523 126.697C225.147 127.007 224.76 127.273 224.361 127.494C223.985 127.738 223.587 127.859 223.166 127.859C222.812 127.859 222.48 127.771 222.17 127.594C221.882 127.417 221.539 127.328 221.141 127.328C220.786 127.328 220.488 127.372 220.244 127.461C220.001 127.572 219.768 127.682 219.547 127.793C219.348 127.926 219.137 128.036 218.916 128.125C218.695 128.236 218.44 128.291 218.152 128.291C217.577 128.291 217.001 128.136 216.426 127.826C215.85 127.538 215.297 127.306 214.766 127.129C214.456 127.018 214.124 126.93 213.77 126.863C213.415 126.819 213.072 126.764 212.74 126.697C212.408 126.631 212.087 126.52 211.777 126.365C211.49 126.232 211.235 126.033 211.014 125.768C210.549 125.192 210.007 124.716 209.387 124.34C208.767 123.964 208.136 123.609 207.494 123.277C206.852 122.945 206.232 122.602 205.635 122.248C205.037 121.872 204.517 121.385 204.074 120.787C203.742 120.322 203.366 119.824 202.945 119.293C202.525 118.74 202.126 118.164 201.75 117.566C201.396 116.969 201.097 116.36 200.854 115.74C200.61 115.12 200.488 114.512 200.488 113.914C200.488 113.471 200.533 113.04 200.621 112.619C200.71 112.199 200.798 111.778 200.887 111.357C200.997 110.915 201.097 110.483 201.186 110.062C201.274 109.642 201.318 109.21 201.318 108.768V108.402C201.318 108.314 201.285 108.214 201.219 108.104C201.152 107.993 201.075 107.893 200.986 107.805C200.92 107.694 200.842 107.605 200.754 107.539C200.688 107.451 200.643 107.406 200.621 107.406C200.577 107.406 200.555 107.417 200.555 107.439C200.577 107.24 200.632 106.941 200.721 106.543C200.831 106.122 200.953 105.702 201.086 105.281C201.219 104.839 201.352 104.44 201.484 104.086C201.617 103.71 201.739 103.466 201.85 103.355C201.982 103.245 202.104 103.134 202.215 103.023C202.348 102.891 202.414 102.725 202.414 102.525C202.414 102.326 202.403 102.138 202.381 101.961C202.359 101.762 202.348 101.562 202.348 101.363C202.348 101.098 202.381 100.943 202.447 100.898C202.514 100.832 202.602 100.799 202.713 100.799C202.824 100.799 202.934 100.788 203.045 100.766C203.156 100.721 203.266 100.6 203.377 100.4C203.576 100.002 203.764 99.6367 203.941 99.3047C204.141 98.9505 204.351 98.6296 204.572 98.3418C204.794 98.054 205.048 97.7884 205.336 97.5449C205.624 97.3014 205.978 97.069 206.398 96.8477C206.753 96.6484 207.096 96.4049 207.428 96.1172C207.782 95.8294 208.136 95.5417 208.49 95.2539C208.844 94.9661 209.199 94.7227 209.553 94.5234C209.929 94.3242 210.327 94.2246 210.748 94.2246C211.346 94.2246 211.921 94.125 212.475 93.9258C213.05 93.7044 213.626 93.5384 214.201 93.4277C215.109 93.2949 216.005 93.1732 216.891 93.0625C217.798 92.9297 218.717 92.8633 219.646 92.8633C220.156 92.8633 220.775 92.9518 221.506 93.1289C222.236 93.2839 222.978 93.4941 223.73 93.7598C224.505 94.0254 225.225 94.3242 225.889 94.6562C226.575 94.9883 227.117 95.3203 227.516 95.6523V95.752C227.516 96.0618 227.46 96.3828 227.35 96.7148C227.239 97.0247 227.184 97.3346 227.184 97.6445C227.184 97.6888 227.184 97.7331 227.184 97.7773C227.184 97.8216 227.206 97.8438 227.25 97.8438C227.626 97.8438 227.98 97.7995 228.312 97.7109C228.667 97.6003 229.032 97.5449 229.408 97.5449C229.452 97.9212 229.618 98.1758 229.906 98.3086C230.194 98.4414 230.482 98.5632 230.77 98.6738C231.035 98.8066 231.279 99.0501 231.5 99.4043C231.743 99.7363 231.965 100.124 232.164 100.566C232.363 100.987 232.551 101.408 232.729 101.828C232.928 102.249 233.116 102.592 233.293 102.857C233.47 103.123 233.625 103.444 233.758 103.82C233.913 104.174 234.035 104.551 234.123 104.949C234.234 105.348 234.311 105.746 234.355 106.145C234.4 106.521 234.422 106.875 234.422 107.207C234.422 107.65 234.333 108.026 234.156 108.336C234.001 108.624 233.824 108.889 233.625 109.133C233.426 109.354 233.238 109.576 233.061 109.797C232.906 109.996 232.828 110.229 232.828 110.494C232.828 110.649 232.861 110.793 232.928 110.926C232.994 111.059 233.083 111.18 233.193 111.291C233.238 111.269 233.326 111.247 233.459 111.225C233.614 111.202 233.691 111.136 233.691 111.025V110.992C233.691 110.815 233.614 110.649 233.459 110.494C233.326 110.339 233.26 110.151 233.26 109.93C233.26 109.885 233.282 109.819 233.326 109.73C233.37 109.62 233.426 109.564 233.492 109.564C233.625 109.564 233.758 109.653 233.891 109.83C234.023 109.985 234.145 110.162 234.256 110.361C234.389 110.538 234.488 110.693 234.555 110.826C234.621 110.959 234.654 111.003 234.654 110.959L234.621 110.926C234.643 111.036 234.654 111.136 234.654 111.225C234.676 111.291 234.688 111.368 234.688 111.457ZM231.367 111.723C231.367 111.368 231.234 111.158 230.969 111.092C230.703 111.003 230.404 110.948 230.072 110.926C229.74 110.904 229.408 110.87 229.076 110.826C228.766 110.782 228.556 110.616 228.445 110.328V109.996C228.445 109.509 228.379 108.945 228.246 108.303C228.135 107.639 227.992 106.975 227.814 106.311C227.637 105.624 227.449 104.96 227.25 104.318C227.051 103.654 226.863 103.068 226.686 102.559C226.508 102.049 226.365 101.64 226.254 101.33C226.143 101.02 226.088 100.865 226.088 100.865C225.911 100.91 225.767 100.932 225.656 100.932C225.28 100.932 224.948 100.854 224.66 100.699C224.395 100.544 224.085 100.378 223.73 100.201C223.398 100.024 222.978 99.8581 222.469 99.7031C221.982 99.5482 221.329 99.4707 220.51 99.4707C219.602 99.4707 218.706 99.4154 217.82 99.3047C216.935 99.1719 216.038 99.1055 215.131 99.1055C213.891 99.1055 212.729 99.3932 211.645 99.9688C210.56 100.522 209.608 101.264 208.789 102.193C207.97 103.101 207.328 104.13 206.863 105.281C206.398 106.432 206.166 107.594 206.166 108.768C206.166 109.255 206.177 109.83 206.199 110.494C206.221 111.136 206.277 111.789 206.365 112.453C206.454 113.095 206.598 113.704 206.797 114.279C206.996 114.833 207.273 115.253 207.627 115.541V116.471C207.715 116.559 207.826 116.615 207.959 116.637C208.114 116.637 208.258 116.637 208.391 116.637C208.546 116.637 208.678 116.659 208.789 116.703C208.9 116.725 208.988 116.814 209.055 116.969C209.342 117.788 209.719 118.419 210.184 118.861C210.648 119.282 211.146 119.647 211.678 119.957C212.209 120.245 212.74 120.544 213.271 120.854C213.803 121.141 214.29 121.573 214.732 122.148C214.91 122.126 215.098 122.115 215.297 122.115C215.496 122.093 215.684 122.082 215.861 122.082C216.57 122.082 217.256 122.137 217.92 122.248C218.606 122.337 219.292 122.381 219.979 122.381C220.709 122.381 221.362 122.193 221.938 121.816C222.535 121.44 223.044 120.964 223.465 120.389C223.73 120.012 223.974 119.691 224.195 119.426C224.417 119.16 224.638 118.917 224.859 118.695C225.103 118.452 225.357 118.23 225.623 118.031C225.911 117.81 226.243 117.566 226.619 117.301C226.752 117.212 226.907 117.102 227.084 116.969C227.283 116.836 227.471 116.692 227.648 116.537C227.848 116.36 228.014 116.194 228.146 116.039C228.279 115.862 228.346 115.696 228.346 115.541C228.346 115.342 228.312 115.143 228.246 114.943C228.202 114.744 228.18 114.545 228.18 114.346C228.18 114.124 228.213 113.859 228.279 113.549C228.346 113.239 228.445 112.94 228.578 112.652C228.733 112.365 228.91 112.132 229.109 111.955C229.331 111.756 229.596 111.656 229.906 111.656C230.15 111.656 230.393 111.712 230.637 111.822C230.88 111.933 231.102 112.066 231.301 112.221C231.345 111.999 231.367 111.833 231.367 111.723ZM274.398 111.457C274.398 111.767 274.343 112.066 274.232 112.354C274.144 112.619 274.033 112.852 273.9 113.051C273.79 113.25 273.679 113.416 273.568 113.549C273.48 113.682 273.436 113.759 273.436 113.781C273.436 114.003 273.502 114.235 273.635 114.479C273.79 114.722 273.867 114.988 273.867 115.275C273.867 115.408 273.812 115.497 273.701 115.541C273.613 115.585 273.513 115.607 273.402 115.607C273.203 115.607 273.037 115.585 272.904 115.541C272.926 115.962 272.96 116.371 273.004 116.77C273.07 117.168 273.104 117.577 273.104 117.998C273.104 118.64 273.037 119.061 272.904 119.26C272.794 119.437 272.672 119.548 272.539 119.592C272.406 119.636 272.273 119.691 272.141 119.758C272.03 119.802 271.975 120.001 271.975 120.355C271.975 120.555 271.831 120.809 271.543 121.119C271.277 121.429 270.945 121.739 270.547 122.049C270.171 122.359 269.772 122.624 269.352 122.846C268.953 123.067 268.632 123.178 268.389 123.178C268.322 123.178 268.245 123.156 268.156 123.111C268.156 123.288 268.167 123.477 268.189 123.676C268.212 123.875 268.223 124.063 268.223 124.24C268.223 124.528 268.134 124.727 267.957 124.838C267.78 124.926 267.581 125.015 267.359 125.104C267.027 125.258 266.684 125.491 266.33 125.801C265.976 126.089 265.611 126.387 265.234 126.697C264.858 127.007 264.471 127.273 264.072 127.494C263.696 127.738 263.298 127.859 262.877 127.859C262.523 127.859 262.191 127.771 261.881 127.594C261.593 127.417 261.25 127.328 260.852 127.328C260.497 127.328 260.199 127.372 259.955 127.461C259.712 127.572 259.479 127.682 259.258 127.793C259.059 127.926 258.848 128.036 258.627 128.125C258.406 128.236 258.151 128.291 257.863 128.291C257.288 128.291 256.712 128.136 256.137 127.826C255.561 127.538 255.008 127.306 254.477 127.129C254.167 127.018 253.835 126.93 253.48 126.863C253.126 126.819 252.783 126.764 252.451 126.697C252.119 126.631 251.798 126.52 251.488 126.365C251.201 126.232 250.946 126.033 250.725 125.768C250.26 125.192 249.717 124.716 249.098 124.34C248.478 123.964 247.847 123.609 247.205 123.277C246.563 122.945 245.943 122.602 245.346 122.248C244.748 121.872 244.228 121.385 243.785 120.787C243.453 120.322 243.077 119.824 242.656 119.293C242.236 118.74 241.837 118.164 241.461 117.566C241.107 116.969 240.808 116.36 240.564 115.74C240.321 115.12 240.199 114.512 240.199 113.914C240.199 113.471 240.243 113.04 240.332 112.619C240.421 112.199 240.509 111.778 240.598 111.357C240.708 110.915 240.808 110.483 240.896 110.062C240.985 109.642 241.029 109.21 241.029 108.768V108.402C241.029 108.314 240.996 108.214 240.93 108.104C240.863 107.993 240.786 107.893 240.697 107.805C240.631 107.694 240.553 107.605 240.465 107.539C240.398 107.451 240.354 107.406 240.332 107.406C240.288 107.406 240.266 107.417 240.266 107.439C240.288 107.24 240.343 106.941 240.432 106.543C240.542 106.122 240.664 105.702 240.797 105.281C240.93 104.839 241.062 104.44 241.195 104.086C241.328 103.71 241.45 103.466 241.561 103.355C241.693 103.245 241.815 103.134 241.926 103.023C242.059 102.891 242.125 102.725 242.125 102.525C242.125 102.326 242.114 102.138 242.092 101.961C242.07 101.762 242.059 101.562 242.059 101.363C242.059 101.098 242.092 100.943 242.158 100.898C242.225 100.832 242.313 100.799 242.424 100.799C242.535 100.799 242.645 100.788 242.756 100.766C242.867 100.721 242.977 100.6 243.088 100.4C243.287 100.002 243.475 99.6367 243.652 99.3047C243.852 98.9505 244.062 98.6296 244.283 98.3418C244.505 98.054 244.759 97.7884 245.047 97.5449C245.335 97.3014 245.689 97.069 246.109 96.8477C246.464 96.6484 246.807 96.4049 247.139 96.1172C247.493 95.8294 247.847 95.5417 248.201 95.2539C248.555 94.9661 248.91 94.7227 249.264 94.5234C249.64 94.3242 250.038 94.2246 250.459 94.2246C251.057 94.2246 251.632 94.125 252.186 93.9258C252.761 93.7044 253.337 93.5384 253.912 93.4277C254.82 93.2949 255.716 93.1732 256.602 93.0625C257.509 92.9297 258.428 92.8633 259.357 92.8633C259.867 92.8633 260.486 92.9518 261.217 93.1289C261.947 93.2839 262.689 93.4941 263.441 93.7598C264.216 94.0254 264.936 94.3242 265.6 94.6562C266.286 94.9883 266.828 95.3203 267.227 95.6523V95.752C267.227 96.0618 267.171 96.3828 267.061 96.7148C266.95 97.0247 266.895 97.3346 266.895 97.6445C266.895 97.6888 266.895 97.7331 266.895 97.7773C266.895 97.8216 266.917 97.8438 266.961 97.8438C267.337 97.8438 267.691 97.7995 268.023 97.7109C268.378 97.6003 268.743 97.5449 269.119 97.5449C269.163 97.9212 269.329 98.1758 269.617 98.3086C269.905 98.4414 270.193 98.5632 270.48 98.6738C270.746 98.8066 270.99 99.0501 271.211 99.4043C271.454 99.7363 271.676 100.124 271.875 100.566C272.074 100.987 272.262 101.408 272.439 101.828C272.639 102.249 272.827 102.592 273.004 102.857C273.181 103.123 273.336 103.444 273.469 103.82C273.624 104.174 273.745 104.551 273.834 104.949C273.945 105.348 274.022 105.746 274.066 106.145C274.111 106.521 274.133 106.875 274.133 107.207C274.133 107.65 274.044 108.026 273.867 108.336C273.712 108.624 273.535 108.889 273.336 109.133C273.137 109.354 272.949 109.576 272.771 109.797C272.617 109.996 272.539 110.229 272.539 110.494C272.539 110.649 272.572 110.793 272.639 110.926C272.705 111.059 272.794 111.18 272.904 111.291C272.949 111.269 273.037 111.247 273.17 111.225C273.325 111.202 273.402 111.136 273.402 111.025V110.992C273.402 110.815 273.325 110.649 273.17 110.494C273.037 110.339 272.971 110.151 272.971 109.93C272.971 109.885 272.993 109.819 273.037 109.73C273.081 109.62 273.137 109.564 273.203 109.564C273.336 109.564 273.469 109.653 273.602 109.83C273.734 109.985 273.856 110.162 273.967 110.361C274.1 110.538 274.199 110.693 274.266 110.826C274.332 110.959 274.365 111.003 274.365 110.959L274.332 110.926C274.354 111.036 274.365 111.136 274.365 111.225C274.387 111.291 274.398 111.368 274.398 111.457ZM271.078 111.723C271.078 111.368 270.945 111.158 270.68 111.092C270.414 111.003 270.115 110.948 269.783 110.926C269.451 110.904 269.119 110.87 268.787 110.826C268.477 110.782 268.267 110.616 268.156 110.328V109.996C268.156 109.509 268.09 108.945 267.957 108.303C267.846 107.639 267.702 106.975 267.525 106.311C267.348 105.624 267.16 104.96 266.961 104.318C266.762 103.654 266.574 103.068 266.396 102.559C266.219 102.049 266.076 101.64 265.965 101.33C265.854 101.02 265.799 100.865 265.799 100.865C265.622 100.91 265.478 100.932 265.367 100.932C264.991 100.932 264.659 100.854 264.371 100.699C264.105 100.544 263.796 100.378 263.441 100.201C263.109 100.024 262.689 99.8581 262.18 99.7031C261.693 99.5482 261.04 99.4707 260.221 99.4707C259.313 99.4707 258.417 99.4154 257.531 99.3047C256.646 99.1719 255.749 99.1055 254.842 99.1055C253.602 99.1055 252.44 99.3932 251.355 99.9688C250.271 100.522 249.319 101.264 248.5 102.193C247.681 103.101 247.039 104.13 246.574 105.281C246.109 106.432 245.877 107.594 245.877 108.768C245.877 109.255 245.888 109.83 245.91 110.494C245.932 111.136 245.988 111.789 246.076 112.453C246.165 113.095 246.309 113.704 246.508 114.279C246.707 114.833 246.984 115.253 247.338 115.541V116.471C247.426 116.559 247.537 116.615 247.67 116.637C247.825 116.637 247.969 116.637 248.102 116.637C248.257 116.637 248.389 116.659 248.5 116.703C248.611 116.725 248.699 116.814 248.766 116.969C249.053 117.788 249.43 118.419 249.895 118.861C250.359 119.282 250.857 119.647 251.389 119.957C251.92 120.245 252.451 120.544 252.982 120.854C253.514 121.141 254.001 121.573 254.443 122.148C254.62 122.126 254.809 122.115 255.008 122.115C255.207 122.093 255.395 122.082 255.572 122.082C256.281 122.082 256.967 122.137 257.631 122.248C258.317 122.337 259.003 122.381 259.689 122.381C260.42 122.381 261.073 122.193 261.648 121.816C262.246 121.44 262.755 120.964 263.176 120.389C263.441 120.012 263.685 119.691 263.906 119.426C264.128 119.16 264.349 118.917 264.57 118.695C264.814 118.452 265.068 118.23 265.334 118.031C265.622 117.81 265.954 117.566 266.33 117.301C266.463 117.212 266.618 117.102 266.795 116.969C266.994 116.836 267.182 116.692 267.359 116.537C267.559 116.36 267.725 116.194 267.857 116.039C267.99 115.862 268.057 115.696 268.057 115.541C268.057 115.342 268.023 115.143 267.957 114.943C267.913 114.744 267.891 114.545 267.891 114.346C267.891 114.124 267.924 113.859 267.99 113.549C268.057 113.239 268.156 112.94 268.289 112.652C268.444 112.365 268.621 112.132 268.82 111.955C269.042 111.756 269.307 111.656 269.617 111.656C269.861 111.656 270.104 111.712 270.348 111.822C270.591 111.933 270.812 112.066 271.012 112.221C271.056 111.999 271.078 111.833 271.078 111.723ZM320.219 124.439C320.219 124.594 320.186 124.838 320.119 125.17C320.075 125.48 319.986 125.79 319.854 126.1C319.743 126.432 319.61 126.719 319.455 126.963C319.3 127.206 319.123 127.328 318.924 127.328C318.68 127.328 318.437 127.273 318.193 127.162C317.95 127.074 317.706 127.029 317.463 127.029C316.688 127.029 315.924 127.096 315.172 127.229C314.419 127.383 313.656 127.461 312.881 127.461C312.505 127.461 312.15 127.406 311.818 127.295C311.486 127.206 311.154 127.107 310.822 126.996C310.512 126.885 310.191 126.775 309.859 126.664C309.527 126.553 309.184 126.476 308.83 126.432C308.299 126.387 307.889 126.177 307.602 125.801C307.336 125.424 307.203 124.982 307.203 124.473C307.203 123.875 307.358 123.377 307.668 122.979C308 122.558 308.365 122.126 308.764 121.684C309.162 121.219 309.516 120.665 309.826 120.023C310.158 119.382 310.324 118.518 310.324 117.434C310.324 115.264 310.225 113.117 310.025 110.992C309.848 108.845 309.76 106.687 309.76 104.518V103.521C309.76 103.057 309.738 102.581 309.693 102.094C309.649 101.607 309.538 101.175 309.361 100.799C309.184 100.4 308.93 100.079 308.598 99.8359C308.266 99.5924 307.801 99.4707 307.203 99.4707C306.694 99.7806 306.207 100.124 305.742 100.5C305.277 100.854 304.868 101.275 304.514 101.762C304.359 101.983 304.193 102.348 304.016 102.857C303.839 103.367 303.673 103.953 303.518 104.617C303.363 105.281 303.208 105.99 303.053 106.742C302.92 107.495 302.798 108.214 302.688 108.9C302.577 109.587 302.488 110.217 302.422 110.793C302.355 111.368 302.322 111.8 302.322 112.088C302.322 112.929 302.378 113.781 302.488 114.645C302.621 115.486 302.688 116.327 302.688 117.168C302.688 117.611 302.643 118.042 302.555 118.463C302.488 118.861 302.455 119.282 302.455 119.725C302.455 119.902 302.466 120.079 302.488 120.256C302.51 120.433 302.577 120.61 302.688 120.787C302.931 120.92 303.219 121.086 303.551 121.285C303.905 121.484 304.226 121.717 304.514 121.982C304.824 122.226 305.078 122.492 305.277 122.779C305.499 123.067 305.609 123.366 305.609 123.676C305.609 124.318 305.377 124.838 304.912 125.236C304.447 125.635 303.905 125.834 303.285 125.834C303.13 125.834 302.986 125.823 302.854 125.801C302.721 125.779 302.577 125.768 302.422 125.768C302.201 125.768 301.979 125.812 301.758 125.9C301.559 125.967 301.348 126.044 301.127 126.133C300.906 126.243 300.673 126.332 300.43 126.398C300.208 126.487 299.965 126.531 299.699 126.531C299.013 126.531 298.349 126.443 297.707 126.266C297.065 126.089 296.401 126 295.715 126C295.516 126 295.339 125.923 295.184 125.768C295.029 125.59 294.896 125.391 294.785 125.17C294.697 124.949 294.63 124.716 294.586 124.473C294.542 124.229 294.52 124.03 294.52 123.875C294.52 123.477 294.597 123.178 294.752 122.979C294.929 122.757 295.139 122.569 295.383 122.414C295.626 122.259 295.892 122.104 296.18 121.949C296.49 121.772 296.766 121.54 297.01 121.252C297.253 120.964 297.452 120.577 297.607 120.09C297.785 119.581 297.873 118.917 297.873 118.098C297.873 117.766 297.829 117.445 297.74 117.135C297.652 116.825 297.552 116.515 297.441 116.205C297.353 115.895 297.264 115.585 297.176 115.275C297.109 114.965 297.076 114.645 297.076 114.312C297.076 113.737 297.143 113.161 297.275 112.586C297.408 112.01 297.475 111.435 297.475 110.859C297.475 110.439 297.397 110.04 297.242 109.664C297.087 109.288 297.01 108.9 297.01 108.502C297.01 108.214 297.087 107.96 297.242 107.738C297.419 107.517 297.508 107.262 297.508 106.975C297.508 106.886 297.486 106.72 297.441 106.477C297.397 106.233 297.342 105.956 297.275 105.646C297.231 105.314 297.187 104.971 297.143 104.617C297.098 104.263 297.076 103.931 297.076 103.621C297.076 103.223 297.12 102.824 297.209 102.426C297.32 102.027 297.375 101.629 297.375 101.23C297.375 100.987 297.309 100.766 297.176 100.566C297.065 100.345 296.91 100.157 296.711 100.002C296.512 99.8249 296.29 99.6921 296.047 99.6035C295.803 99.515 295.571 99.4707 295.35 99.4707C294.973 99.4707 294.608 99.5482 294.254 99.7031C293.9 99.8359 293.568 100.013 293.258 100.234C292.948 100.456 292.649 100.699 292.361 100.965C292.074 101.23 291.797 101.485 291.531 101.729C291.465 101.928 291.398 102.138 291.332 102.359C291.288 102.581 291.21 102.78 291.1 102.957C291.011 103.09 290.867 103.201 290.668 103.289C290.491 103.378 290.303 103.466 290.104 103.555C289.926 103.643 289.76 103.743 289.605 103.854C289.473 103.942 289.406 104.086 289.406 104.285C289.406 104.462 289.462 104.606 289.572 104.717C289.705 104.827 289.838 104.905 289.971 104.949C290.192 105.436 290.303 105.89 290.303 106.311C290.303 106.687 290.258 107.052 290.17 107.406C290.104 107.76 290.015 108.115 289.904 108.469C289.816 108.801 289.727 109.155 289.639 109.531C289.572 109.885 289.539 110.24 289.539 110.594L289.572 113.914C289.572 114.224 289.605 114.434 289.672 114.545C289.76 114.633 289.849 114.711 289.938 114.777C290.048 114.822 290.148 114.899 290.236 115.01C290.347 115.12 290.436 115.353 290.502 115.707C290.568 116.15 290.624 116.604 290.668 117.068C290.734 117.511 290.768 117.954 290.768 118.396C290.768 118.861 290.723 119.326 290.635 119.791C290.546 120.234 290.502 120.688 290.502 121.152C290.502 121.639 290.568 122.005 290.701 122.248C290.856 122.469 291.044 122.635 291.266 122.746C291.487 122.835 291.719 122.901 291.963 122.945C292.206 122.967 292.439 123.023 292.66 123.111C292.882 123.2 293.059 123.355 293.191 123.576C293.346 123.798 293.424 124.152 293.424 124.639C293.424 125.081 293.302 125.447 293.059 125.734C292.815 126 292.483 126.188 292.062 126.299C290.668 126.675 289.218 126.974 287.713 127.195C286.208 127.417 284.736 127.527 283.297 127.527C282.854 127.527 282.478 127.505 282.168 127.461C281.858 127.439 281.604 127.35 281.404 127.195C281.227 127.062 281.094 126.841 281.006 126.531C280.917 126.221 280.873 125.779 280.873 125.203C280.873 124.694 281.072 124.24 281.471 123.842C281.891 123.421 282.334 123.023 282.799 122.646C283.286 122.27 283.729 121.894 284.127 121.518C284.548 121.119 284.758 120.688 284.758 120.223C284.758 120.023 284.747 119.846 284.725 119.691C284.725 119.514 284.725 119.359 284.725 119.227C284.725 119.027 284.747 118.828 284.791 118.629C284.857 118.43 284.979 118.208 285.156 117.965C285.156 117.478 285.101 116.991 284.99 116.504C284.902 116.017 284.802 115.541 284.691 115.076C284.581 114.589 284.47 114.113 284.359 113.648C284.271 113.161 284.227 112.663 284.227 112.154C284.227 111.114 284.315 110.096 284.492 109.1C284.691 108.104 284.791 107.085 284.791 106.045C284.791 105.469 284.769 104.905 284.725 104.352C284.702 103.798 284.669 103.234 284.625 102.658C284.559 101.994 284.481 101.463 284.393 101.064C284.304 100.644 284.16 100.29 283.961 100.002C283.784 99.7142 283.518 99.4707 283.164 99.2715C282.832 99.0501 282.356 98.7956 281.736 98.5078C281.382 98.3307 281.061 98.0983 280.773 97.8105C280.508 97.5228 280.375 97.1686 280.375 96.748C280.375 96.2832 280.475 95.9622 280.674 95.7852C280.895 95.5859 281.139 95.4421 281.404 95.3535C281.692 95.2428 281.969 95.1432 282.234 95.0547C282.5 94.9661 282.688 94.7891 282.799 94.5234C282.887 94.3242 282.965 94.2135 283.031 94.1914C283.12 94.1471 283.275 94.125 283.496 94.125C284.094 94.125 284.669 94.2246 285.223 94.4238C285.776 94.6009 286.307 94.8001 286.816 95.0215C287.326 95.2207 287.812 95.4199 288.277 95.6191C288.764 95.7962 289.229 95.8848 289.672 95.8848C290.137 95.8848 290.624 95.7409 291.133 95.4531C291.664 95.1432 292.24 94.8112 292.859 94.457C293.479 94.1029 294.165 93.7819 294.918 93.4941C295.693 93.1842 296.567 93.0293 297.541 93.0293C297.917 93.0293 298.305 93.1178 298.703 93.2949C299.102 93.472 299.489 93.6934 299.865 93.959C300.242 94.2246 300.585 94.5124 300.895 94.8223C301.227 95.1322 301.503 95.431 301.725 95.7188C302.256 95.2096 302.876 94.7669 303.584 94.3906C304.292 94.0143 305.034 93.7044 305.809 93.4609C306.583 93.2174 307.369 93.0404 308.166 92.9297C308.963 92.819 309.727 92.7637 310.457 92.7637C311.01 92.7637 311.508 92.9186 311.951 93.2285C312.394 93.5163 312.781 93.9147 313.113 94.4238C313.467 94.9108 313.766 95.4642 314.01 96.084C314.275 96.7038 314.508 97.3236 314.707 97.9434C314.928 98.5632 315.117 99.1719 315.271 99.7695C315.426 100.345 315.57 100.832 315.703 101.23C315.747 101.341 315.781 101.452 315.803 101.562C315.825 101.673 315.836 101.795 315.836 101.928C315.836 102.238 315.792 102.536 315.703 102.824C315.615 103.112 315.515 103.4 315.404 103.688C315.316 103.953 315.227 104.23 315.139 104.518C315.05 104.805 315.006 105.104 315.006 105.414C315.006 105.724 315.061 106.023 315.172 106.311C315.305 106.598 315.371 106.897 315.371 107.207C315.371 107.539 315.305 107.86 315.172 108.17C315.039 108.458 314.973 108.768 314.973 109.1C314.973 109.542 315.05 109.963 315.205 110.361C315.382 110.76 315.471 111.18 315.471 111.623C315.471 111.955 315.415 112.276 315.305 112.586C315.216 112.874 315.105 113.173 314.973 113.482C314.862 113.792 314.751 114.102 314.641 114.412C314.552 114.7 314.508 115.01 314.508 115.342C314.508 115.452 314.519 115.563 314.541 115.674C314.563 115.762 314.596 115.862 314.641 115.973L315.936 119.227C316.135 119.691 316.467 120.134 316.932 120.555C317.396 120.975 317.872 121.385 318.359 121.783C318.846 122.182 319.278 122.602 319.654 123.045C320.031 123.465 320.219 123.93 320.219 124.439ZM355.016 115.84C355.016 116.128 354.96 116.415 354.85 116.703C354.761 116.969 354.65 117.245 354.518 117.533C354.385 117.799 354.252 118.064 354.119 118.33C354.008 118.596 353.931 118.872 353.887 119.16C353.776 119.758 353.544 120.3 353.189 120.787C352.857 121.252 352.47 121.695 352.027 122.115C351.585 122.536 351.12 122.945 350.633 123.344C350.146 123.72 349.714 124.107 349.338 124.506C349.006 124.838 348.652 125.004 348.275 125.004C348.054 125.004 347.844 124.982 347.645 124.938C347.445 124.893 347.235 124.871 347.014 124.871C346.704 124.871 346.449 124.926 346.25 125.037C346.073 125.148 345.896 125.27 345.719 125.402C345.564 125.513 345.365 125.624 345.121 125.734C344.9 125.845 344.59 125.9 344.191 125.9C343.904 125.9 343.627 125.978 343.361 126.133C343.096 126.288 342.83 126.365 342.564 126.365C342.188 126.365 341.745 126.255 341.236 126.033C340.749 125.812 340.207 125.701 339.609 125.701C339.233 125.701 338.857 125.723 338.48 125.768C338.104 125.79 337.728 125.801 337.352 125.801C337.02 125.801 336.688 125.757 336.355 125.668C336.046 125.557 335.736 125.447 335.426 125.336C335.138 125.203 334.839 125.092 334.529 125.004C334.219 124.893 333.898 124.838 333.566 124.838C332.902 124.838 332.338 125.004 331.873 125.336C331.408 125.668 330.988 126.033 330.611 126.432C330.257 126.852 329.892 127.229 329.516 127.561C329.161 127.893 328.752 128.059 328.287 128.059C327.867 128.059 327.579 127.981 327.424 127.826C327.291 127.693 327.202 127.527 327.158 127.328C327.136 127.129 327.114 126.908 327.092 126.664C327.07 126.443 326.97 126.243 326.793 126.066C326.461 125.712 326.24 125.391 326.129 125.104C326.018 124.794 325.963 124.395 325.963 123.908C325.963 122.846 326.051 121.816 326.229 120.82C326.428 119.802 326.527 118.762 326.527 117.699C326.527 117.323 326.483 116.958 326.395 116.604C326.306 116.249 326.195 115.928 326.062 115.641C325.952 115.353 325.852 115.109 325.764 114.91C325.675 114.711 325.631 114.567 325.631 114.479C325.631 114.279 325.686 114.069 325.797 113.848C325.908 113.626 326.029 113.427 326.162 113.25C326.317 113.051 326.472 112.896 326.627 112.785C326.804 112.652 326.948 112.586 327.059 112.586C327.28 112.586 327.468 112.641 327.623 112.752C327.8 112.863 327.966 112.984 328.121 113.117C328.298 113.228 328.464 113.339 328.619 113.449C328.796 113.56 329.007 113.615 329.25 113.615C329.294 113.615 329.327 113.615 329.35 113.615C329.372 113.593 329.405 113.582 329.449 113.582C329.759 114.091 330.003 114.645 330.18 115.242C330.357 115.818 330.534 116.393 330.711 116.969C330.91 117.522 331.143 118.064 331.408 118.596C331.696 119.105 332.094 119.559 332.604 119.957C332.736 120.068 332.891 120.189 333.068 120.322C333.245 120.455 333.423 120.588 333.6 120.721C333.799 120.854 333.987 120.964 334.164 121.053C334.363 121.141 334.54 121.186 334.695 121.186C334.939 121.186 335.171 121.163 335.393 121.119C335.636 121.075 335.88 121.053 336.123 121.053C336.455 121.053 336.621 121.163 336.621 121.385C336.621 121.429 336.599 121.518 336.555 121.65H336.953H337.186C338.027 121.65 338.868 121.551 339.709 121.352C340.55 121.152 341.402 121.053 342.266 121.053C342.664 121.053 343.062 121.097 343.461 121.186C343.882 121.252 344.258 121.407 344.59 121.65C345.01 121.451 345.365 121.197 345.652 120.887C345.94 120.577 346.228 120.278 346.516 119.99C346.803 119.68 347.124 119.415 347.479 119.193C347.833 118.95 348.286 118.817 348.84 118.795C348.951 118.662 349.006 118.507 349.006 118.33C349.028 118.153 349.039 117.987 349.039 117.832C349.039 117.655 349.05 117.489 349.072 117.334C349.117 117.179 349.205 117.035 349.338 116.902C349.559 116.703 349.725 116.504 349.836 116.305C349.969 116.083 350.035 115.818 350.035 115.508C350.035 114.91 349.869 114.357 349.537 113.848C349.205 113.316 348.773 112.84 348.242 112.42C347.733 111.977 347.135 111.59 346.449 111.258C345.785 110.904 345.099 110.605 344.391 110.361C343.704 110.118 343.04 109.941 342.398 109.83C341.757 109.697 341.192 109.631 340.705 109.631C340.152 109.631 339.598 109.686 339.045 109.797C338.514 109.885 337.993 110.051 337.484 110.295C337.484 109.808 337.374 109.487 337.152 109.332C336.931 109.177 336.665 109.066 336.355 109C336.046 108.934 335.725 108.845 335.393 108.734C335.083 108.602 334.839 108.325 334.662 107.904C334.286 108.391 333.81 108.745 333.234 108.967C332.681 109.188 332.117 109.299 331.541 109.299C330.965 109.299 330.434 109.188 329.947 108.967C329.46 108.745 329.018 108.447 328.619 108.07C328.243 107.694 327.933 107.262 327.689 106.775C327.468 106.288 327.346 105.768 327.324 105.215C327.302 104.839 327.225 104.507 327.092 104.219C326.959 103.931 326.815 103.654 326.66 103.389C326.505 103.123 326.361 102.846 326.229 102.559C326.118 102.271 326.062 101.928 326.062 101.529C326.062 100.533 326.107 99.7585 326.195 99.2051C326.306 98.6296 326.439 98.1979 326.594 97.9102C326.749 97.6003 326.915 97.39 327.092 97.2793C327.291 97.1465 327.49 97.0247 327.689 96.9141C327.889 96.7812 328.077 96.6042 328.254 96.3828C328.431 96.1615 328.575 95.8073 328.686 95.3203C328.752 94.9883 328.852 94.7669 328.984 94.6562C329.117 94.5456 329.35 94.4681 329.682 94.4238C329.969 94.3796 330.158 94.3132 330.246 94.2246C330.335 94.1361 330.39 94.0365 330.412 93.9258C330.456 93.8151 330.501 93.7044 330.545 93.5938C330.589 93.4609 330.7 93.3392 330.877 93.2285C331.342 92.9186 331.796 92.7305 332.238 92.6641C332.703 92.5755 333.179 92.5312 333.666 92.5312C333.954 92.5312 334.23 92.5423 334.496 92.5645C334.762 92.5645 335.049 92.5645 335.359 92.5645C336.289 92.5645 337.197 92.5202 338.082 92.4316C338.967 92.3431 339.875 92.2988 340.805 92.2988C341.513 92.2988 342.155 92.3763 342.73 92.5312C343.328 92.6641 343.848 92.819 344.291 92.9961C344.734 93.1732 345.11 93.3392 345.42 93.4941C345.752 93.627 346.018 93.6934 346.217 93.6934C346.593 93.6934 346.947 93.627 347.279 93.4941C347.633 93.3392 347.999 93.2507 348.375 93.2285C348.552 93.3835 348.751 93.5273 348.973 93.6602C349.216 93.7708 349.46 93.8262 349.703 93.8262C349.88 93.8262 350.013 93.7708 350.102 93.6602C350.19 93.5495 350.245 93.4056 350.268 93.2285C350.577 93.3171 350.876 93.472 351.164 93.6934C351.452 93.9147 351.706 94.1803 351.928 94.4902C352.171 94.778 352.359 95.099 352.492 95.4531C352.625 95.7852 352.691 96.1061 352.691 96.416C352.691 97.235 352.625 98.054 352.492 98.873C352.382 99.6699 352.326 100.478 352.326 101.297C352.326 102.138 352.437 102.924 352.658 103.654C352.348 103.898 352.005 104.119 351.629 104.318C351.275 104.495 350.976 104.75 350.732 105.082L350.699 105.049C350.544 104.916 350.345 104.75 350.102 104.551C349.88 104.329 349.637 104.119 349.371 103.92C349.128 103.721 348.884 103.555 348.641 103.422C348.397 103.267 348.176 103.189 347.977 103.189H347.91C347.799 103.123 347.7 103.046 347.611 102.957C347.545 102.868 347.512 102.758 347.512 102.625C347.512 102.404 347.578 102.204 347.711 102.027C347.844 101.85 347.91 101.651 347.91 101.43C347.91 101.363 347.811 101.208 347.611 100.965C347.412 100.721 347.18 100.478 346.914 100.234C346.671 99.9688 346.427 99.7363 346.184 99.5371C345.94 99.3158 345.763 99.194 345.652 99.1719C345.431 99.1276 345.199 99.0501 344.955 98.9395C344.712 98.8288 344.468 98.7181 344.225 98.6074C343.981 98.4967 343.749 98.3971 343.527 98.3086C343.328 98.2201 343.162 98.1758 343.029 98.1758C342.742 98.1758 342.454 98.2201 342.166 98.3086C341.878 98.375 341.579 98.4193 341.27 98.4414H341.303L339.809 98.2754C339.078 98.1868 338.359 98.0098 337.65 97.7441C336.942 97.4785 336.212 97.3457 335.459 97.3457C334.795 97.3457 334.308 97.5007 333.998 97.8105C333.688 98.1204 333.434 98.4746 333.234 98.873C333.035 99.2493 332.836 99.5924 332.637 99.9023C332.438 100.212 332.105 100.367 331.641 100.367C331.508 100.367 331.408 100.356 331.342 100.334C331.563 101.042 331.762 101.64 331.939 102.127C332.139 102.614 332.371 103.057 332.637 103.455C332.902 103.831 333.234 104.197 333.633 104.551C334.031 104.883 334.54 105.248 335.16 105.646C335.227 105.691 335.315 105.768 335.426 105.879C335.559 105.99 335.691 106.111 335.824 106.244C335.957 106.355 336.079 106.454 336.189 106.543C336.322 106.632 336.422 106.676 336.488 106.676C336.865 106.676 337.219 106.587 337.551 106.41C337.905 106.233 338.27 106.145 338.646 106.145C338.912 106.145 339.156 106.211 339.377 106.344C339.62 106.454 339.875 106.51 340.141 106.51C340.406 106.51 340.661 106.465 340.904 106.377C341.148 106.266 341.413 106.211 341.701 106.211C341.812 106.211 341.923 106.222 342.033 106.244C342.166 106.266 342.288 106.288 342.398 106.311C343.062 106.488 343.727 106.576 344.391 106.576C345.055 106.554 345.73 106.554 346.416 106.576C346.903 106.576 347.39 106.665 347.877 106.842C348.386 107.019 348.873 107.251 349.338 107.539C349.803 107.805 350.234 108.115 350.633 108.469C351.031 108.823 351.374 109.188 351.662 109.564C351.883 109.874 352.127 110.151 352.393 110.395C352.658 110.638 352.913 110.893 353.156 111.158C353.422 111.402 353.654 111.667 353.854 111.955C354.053 112.243 354.197 112.575 354.285 112.951C354.396 113.394 354.54 113.881 354.717 114.412C354.916 114.943 355.016 115.419 355.016 115.84Z" fill="#181818"/>
</svg>
